<svg height="512pt" viewBox="0 -58 512 512" width="512pt" xmlns="http://www.w3.org/2000/svg"><path d="m458.070312 87.792969c-11.753906-36.550781-46-63.019531-86.457031-63.019531-13.617187 0-26.488281 3.082031-38.082031 8.453124-19.546875-20.4375-47.019531-33.226562-77.53125-33.226562s-57.984375 12.789062-77.53125 33.226562c-11.59375-5.371093-24.464844-8.453124-38.082031-8.453124-40.457031 0-74.703125 26.464843-86.457031 63.019531-31.464844 11.660156-53.929688 41.851562-53.929688 77.367187 0 45.609375 36.972656 82.582032 82.582031 82.582032 31.070313 0 58.105469-17.179688 72.199219-42.539063 12.757812-2.035156 24.632812-6.671875 35.03125-13.4375 18.246094 14.328125 41.191406 22.945313 66.1875 22.945313s47.941406-8.617188 66.1875-22.945313c10.402344 6.765625 22.273438 11.402344 35.03125 13.4375 14.09375 25.359375 41.128906 42.539063 72.199219 42.539063 45.609375 0 82.582031-36.972657 82.582031-82.582032 0-35.515625-22.464844-65.707031-53.929688-77.367187zm0 0" fill="#eceaec"/><path d="m123.871094 165.160156v222.96875c0 4.5625 3.695312 8.257813 8.257812 8.257813h247.742188c4.5625 0 8.257812-3.695313 8.257812-8.257813v-222.96875zm0 0" fill="#eceaec"/><g fill="#dad8db"><path d="m214.710938 305.550781c-3.273438 0-6.378907-1.960937-7.671876-5.195312l-49.546874-123.871094c-1.695313-4.234375.371093-9.039063 4.605468-10.734375 4.203125-1.683594 9.039063.363281 10.734375 4.605469l49.546875 123.871093c1.695313 4.234376-.371094 9.039063-4.605468 10.734376-1 .402343-2.039063.589843-3.0625.589843zm0 0"/><path d="m297.289062 305.550781c-1.023437 0-2.0625-.1875-3.0625-.589843-4.234374-1.695313-6.300781-6.5-4.605468-10.734376l49.546875-123.871093c1.695312-4.242188 6.539062-6.296875 10.734375-4.605469 4.234375 1.695312 6.296875 6.5 4.605468 10.734375l-49.546874 123.871094c-1.292969 3.234375-4.394532 5.195312-7.671876 5.195312zm0 0"/><path d="m256 305.550781c-4.566406 0-8.257812-3.695312-8.257812-8.261719v-165.160156c0-4.566406 3.695312-8.257812 8.257812-8.257812s8.257812 3.695312 8.257812 8.257812v165.160156c0 4.566407-3.691406 8.261719-8.257812 8.261719zm0 0"/><path d="m123.871094 205.984375c0-11.707031-4.210938-22.980469-11.75-31.941406-13.28125-15.792969-21.28125-36.175781-21.28125-58.429688 0-43.050781 29.988281-79.066406 70.191406-88.429687-6.632812-1.570313-13.53125-2.410156-20.644531-2.410156-40.457031 0-74.703125 26.464843-86.457031 63.019531-34.371094 12.734375-58.003907 47.585937-53.34375 87.335937 4.269531 36.433594 33.257812 66.285156 69.539062 71.683594 19.742188 2.941406 38.300781-1.261719 53.746094-10.222656zm0 0"/><path d="m123.871094 289.03125v99.097656c0 4.5625 3.695312 8.257813 8.257812 8.257813h33.03125v-57.804688c0-18.242187 14.789063-33.03125 33.03125-33.03125h189.9375v-16.515625h-264.257812zm0 0"/><path d="m445.933594 231.226562c-13.003906 0-25.296875-3.015624-36.234375-8.375-9.96875-4.890624-21.570313 2.640626-21.570313 13.742188v.011719c12.15625 7.039062 26.230469 11.136719 41.289063 11.136719 27.019531 0 50.984375-12.957032 66.050781-33.019532-13.800781 10.367188-30.945312 16.503906-49.535156 16.503906zm0 0"/></g></svg>