<?xml version="1.0"?>
<svg xmlns="http://www.w3.org/2000/svg" height="512px" viewBox="0 -68 457.38667 457" width="512px" class=""><g><path d="m40.960938 7.019531h382.292968v293.546875h-382.292968zm0 0" fill="#94c1ff" data-original="#94C1FF" class="" data-old_color="#94c1ff" style="fill:#715200"/><path d="m423.253906 307.394531h-382.292968c-3.769532 0-6.828126-3.058593-6.828126-6.828125v-293.546875c0-3.769531 3.058594-6.828125 6.828126-6.828125h382.292968c3.769532 0 6.824219 3.058594 6.824219 6.828125v293.546875c0 3.769532-3.054687 6.828125-6.824219 6.828125zm-375.46875-13.65625h368.640625v-279.890625h-368.640625zm0 0" fill="#0e65e5" data-original="#0E65E5" class="" data-old_color="#0e65e5" style="fill:#000000"/><path d="m40.960938 300.566406h382.292968v13.652344h-382.292968zm0 0" fill="#0e65e5" data-original="#0E65E5" class="" data-old_color="#0e65e5" style="fill:#000000"/><path d="m423.253906 321.046875h-382.292968c-3.769532 0-6.828126-3.058594-6.828126-6.828125v-13.652344c0-3.769531 3.058594-6.828125 6.828126-6.828125h382.292968c3.769532 0 6.824219 3.058594 6.824219 6.828125v13.652344c0 3.769531-3.054687 6.828125-6.824219 6.828125zm-375.46875-13.652344h368.640625zm0 0" fill="#0e65e5" data-original="#0E65E5" class="" data-old_color="#0e65e5" style="fill:#000000"/><path d="m81.921875 47.980469h300.371094v211.625h-300.371094zm0 0" fill="#d7e9ff" data-original="#D7E9FF" class="active-path" data-old_color="#d7e9ff" style="fill:#FFA49B"/><g fill="#0e65e5"><path d="m382.292969 266.433594h-300.371094c-3.773437 0-6.828125-3.058594-6.828125-6.828125v-211.625c0-3.769531 3.054688-6.828125 6.828125-6.828125h300.371094c3.769531 0 6.828125 3.058594 6.828125 6.828125v211.625c0 3.769531-3.058594 6.828125-6.828125 6.828125zm-293.546875-13.652344h286.71875v-197.972656h-286.71875zm0 0" data-original="#000000" class="" style="fill:#474242" data-old_color="#000000"/><path d="m81.921875 54.808594c-26.351563 0-47.789063-21.4375-47.789063-47.789063h13.652344c0 18.820313 15.316406 34.132813 34.136719 34.132813zm0 0" data-original="#000000" class="" style="fill:#474242" data-old_color="#000000"/><path d="m47.785156 300.566406h-13.652344c0-26.347656 21.4375-47.785156 47.789063-47.785156v13.652344c-18.820313 0-34.136719 15.3125-34.136719 34.132812zm0 0" data-original="#000000" class="" style="fill:#474242" data-old_color="#000000"/><path d="m382.292969 54.808594v-13.65625c18.820312 0 34.132812-15.3125 34.132812-34.132813h13.652344c0 26.351563-21.4375 47.789063-47.785156 47.789063zm0 0" data-original="#000000" class="" style="fill:#474242" data-old_color="#000000"/><path d="m430.078125 300.566406h-13.652344c0-18.820312-15.3125-34.132812-34.132812-34.132812v-13.652344c26.347656 0 47.785156 21.4375 47.785156 47.785156zm0 0" data-original="#000000" class="" style="fill:#474242" data-old_color="#000000"/><path d="m165.089844 69.171875c2.6875 0 5.191406.335937 7.511718 1.019531 2.320313.679688 4.34375 1.6875 6.074219 3.035156 1.726563 1.34375 3.085938 3.019532 4.078125 5.03125.988282 2.007813 1.484375 4.359376 1.484375 7.046876v27.484374c0 2.304688-.25 4.335938-.753906 6.089844-.5 1.761719-1.160156 3.285156-1.96875 4.566406-.816406 1.289063-1.738281 2.382813-2.773437 3.28125-1.035157.902344-2.085938 1.632813-3.148438 2.195313-2.539062 1.359375-5.421875 2.128906-8.640625 2.304687h-14.71875c-1.683594 0-2.984375-.285156-3.898437-.863281-.917969-.574219-1.582032-1.34375-1.996094-2.304687-.414063-.960938-.660156-2.046875-.730469-3.257813-.074219-1.214843-.109375-2.464843-.109375-3.769531v-41.753906c0-1.269532.035156-2.515625.109375-3.722656.070313-1.214844.316406-2.292969.730469-3.238282.414062-.945312 1.078125-1.707031 1.996094-2.28125.914062-.578125 2.214843-.863281 3.898437-.863281zm-6.117188 10.367187v41.136719h5.761719c1.269531-.058593 2.40625-.351562 3.410156-.886719.414063-.207031.828125-.484374 1.246094-.84375.414063-.351562.78125-.773437 1.105469-1.261718.324218-.484375.582031-1.070313.777344-1.75.1875-.679688.285156-1.460938.285156-2.347656v-26.152344c0-.976563-.097656-1.839844-.285156-2.59375-.195313-.75-.453126-1.414063-.777344-1.972656-.324219-.558594-.691406-1.03125-1.105469-1.417969-.417969-.386719-.828125-.695313-1.246094-.929688-1.003906-.5625-2.140625-.890625-3.410156-.976562h-5.761719zm0 0" data-original="#000000" class="" style="fill:#474242" data-old_color="#000000"/><path d="m228.476562 121.210938c0 1.238281-.042968 2.457031-.132812 3.65625-.089844 1.199218-.355469 2.265624-.796875 3.214843-.445313.945313-1.109375 1.707031-1.996094 2.28125-.886719.578125-2.128906.863281-3.726562.863281-1.625 0-2.894531-.273437-3.8125-.816406-.910157-.546875-1.59375-1.210937-2.035157-1.996094-.441406-.78125-.714843-1.601562-.820312-2.457031-.101562-.859375-.15625-1.585937-.15625-2.171875-.265625.855469-.644531 1.730469-1.128906 2.613282-.488282.886718-1.117188 1.683593-1.882813 2.394531-.769531.707031-1.695312 1.292969-2.769531 1.75-1.082031.457031-2.34375.683593-3.792969.683593-1.625 0-3.25-.265624-4.875-.796874s-3.085937-1.417969-4.386719-2.660157c-1.304687-1.242187-2.359374-2.859375-3.167968-4.851562-.816406-2-1.222656-4.457031-1.222656-7.382813v-12.855468c0-2.953126.40625-5.429688 1.222656-7.421876.808594-2 1.867187-3.609374 3.167968-4.835937 1.300782-1.226563 2.761719-2.105469 4.386719-2.636719s3.25-.796875 4.875-.796875c1.449219 0 2.710938.222657 3.792969.664063 1.074219.445312 2 1.019531 2.769531 1.730468.765625.707032 1.394531 1.507813 1.882813 2.394532.488281.886718.863281 1.773437 1.128906 2.660156 0-1.480469.207031-2.707031.621094-3.679688.414062-.976562.945312-1.75 1.597656-2.328124.648438-.574219 1.378906-.972657 2.191406-1.195313.816406-.222656 1.621094-.332031 2.417969-.332031 1.476563 0 2.660156.285156 3.546875.863281.882812.578125 1.554688 1.328125 2.015625 2.261719.457031.933594.753906 2.007812.886719 3.234375.136718 1.226562.199218 2.476562.199218 3.746093zm-23.050781-6.828126c0 .796876.03125 1.582032.085938 2.351563.0625.765625.226562 1.457031.492187 2.082031.261719.621094.65625 1.113282 1.171875 1.484375.519531.371094 1.234375.550781 2.152344.550781 1.152344 0 2.089844-.253906 2.8125-.773437.726563-.515625 1.292969-1.3125 1.707031-2.394531.414063-1.078125.703125-2.4375.867188-4.078125.160156-1.640625.253906-3.59375.285156-5.871094 0-.917969-.078125-1.972656-.242188-3.167969-.164062-1.199218-.453124-2.328125-.863281-3.390625-.414062-1.0625-.992187-1.964843-1.730469-2.703125-.742187-.742187-1.683593-1.109375-2.839843-1.109375-.914063 0-1.632813.183594-2.148438.554688-.515625.367187-.910156.847656-1.175781 1.441406-.265625.589844-.429688 1.261719-.488281 2.015625-.054688.753906-.085938 1.515625-.085938 2.285156zm0 0" data-original="#000000" class="" style="fill:#474242" data-old_color="#000000"/><path d="m240.089844 96.828125c0-1.242187.066406-2.453125.199218-3.636719.132813-1.175781.433594-2.234375.90625-3.167968.472657-.929688 1.15625-1.683594 2.039063-2.257813.886719-.578125 2.085937-.863281 3.59375-.863281 1.503906 0 2.703125.285156 3.589844.863281.886719.574219 1.566406 1.328125 2.039062 2.257813.472657.933593.777344 1.992187.910157 3.167968.132812 1.183594.199218 2.394532.199218 3.636719v24.46875c0 1.242187-.066406 2.460937-.199218 3.65625-.132813 1.199219-.4375 2.265625-.910157 3.195313-.472656.929687-1.152343 1.675781-2.039062 2.234374-.886719.566407-2.085938.84375-3.589844.84375-1.507813 0-2.703125-.277343-3.59375-.84375-.886719-.558593-1.566406-1.304687-2.039063-2.234374-.472656-.929688-.773437-1.996094-.90625-3.195313-.132812-1.195313-.199218-2.414063-.199218-3.65625zm13.5625-20.921875c0 2.277344-.589844 3.964844-1.773438 5.078125-1.179687 1.105469-2.835937 1.660156-4.960937 1.660156-2.128907 0-3.785157-.554687-4.96875-1.660156-1.179688-1.109375-1.773438-2.800781-1.773438-5.078125 0-2.363281.59375-4.078125 1.773438-5.144531 1.183593-1.0625 2.839843-1.59375 4.96875-1.59375 2.273437 0 3.964843.53125 5.074219 1.59375 1.109374 1.070312 1.660156 2.78125 1.660156 5.144531zm0 0" data-original="#000000" class="" style="fill:#474242" data-old_color="#000000"/><path d="m267.21875 79.011719c0-1.242188.066406-2.457031.199219-3.636719.132812-1.179688.433593-2.230469.90625-3.148438.472656-.914062 1.15625-1.652343 2.039062-2.21875.890625-.558593 2.085938-.835937 3.59375-.835937 1.535157 0 2.75.277344 3.632813.835937.886718.566407 1.558594 1.304688 2.019531 2.21875.457031.917969.753906 1.964844.882813 3.148438.136718 1.179688.203124 2.394531.203124 3.636719v42.285156c0 1.242187-.066406 2.460937-.203124 3.65625-.128907 1.199219-.425782 2.265625-.882813 3.195313-.460937.929687-1.132813 1.675781-2.019531 2.234374-.882813.566407-2.097656.84375-3.632813.84375-1.507812 0-2.703125-.277343-3.59375-.84375-.886719-.558593-1.566406-1.304687-2.039062-2.234374-.472657-.929688-.773438-1.996094-.90625-3.195313-.132813-1.195313-.199219-2.414063-.199219-3.65625zm0 0" data-original="#000000" class="" style="fill:#474242" data-old_color="#000000"/><path d="m297.1875 148.957031c-3.371094 0-5.765625-.480469-7.183594-1.441406-1.417968-.957031-2.125-2.371094-2.125-4.230469 0-.917968.125-1.683594.375-2.304687.25-.625.601563-1.125 1.039063-1.511719.445312-.382812.953125-.65625 1.53125-.820312.574219-.160157 1.1875-.242188 1.839843-.242188.441407 0 .855469.015625 1.238282.046875.386718.027344.710937.042969.976562.042969.558594 0 1.101563-.335938 1.617188-.996094.515625-.667969 1.019531-1.503906 1.511718-2.507812.484376-1.003907.976563-2.085938 1.480469-3.234376.503907-1.15625 1.003907-2.21875 1.507813-3.195312l-.710938-1.773438c-.855468-2.15625-1.753906-4.421874-2.703125-6.800781-.945312-2.378906-1.882812-4.789062-2.8125-7.226562-.929687-2.4375-1.847656-4.867188-2.75-7.289063-.898437-2.421875-1.71875-4.773437-2.457031-7.050781-.324219-.945313-.597656-1.875-.820312-2.789063-.21875-.917968-.328126-1.820312-.328126-2.707031 0-.859375.175782-1.65625.53125-2.394531.351563-.734375.839844-1.371094 1.460938-1.902344s1.335938-.953125 2.152344-1.261718c.8125-.308594 1.675781-.464844 2.59375-.464844.824218 0 1.585937.175781 2.28125.53125.695312.351562 1.316406.839844 1.859375 1.457031.546875.625 1.027343 1.332031 1.441406 2.132813.414063.796874.769531 1.640624 1.066406 2.523437l5.9375 18.703125 5.675781-18.703125c.265626-.824219.605469-1.65625 1.019532-2.480469.414062-.828125.902344-1.5625 1.460937-2.195312.5625-.636719 1.199219-1.152344 1.90625-1.550782.710938-.398437 1.496094-.597656 2.351563-.597656.855468 0 1.675781.164063 2.457031.484375.785156.328125 1.464844.777344 2.042969 1.355469.574218.574219 1.03125 1.261719 1.371094 2.058594.34375.796875.511718 1.65625.511718 2.570312 0 .886719-.109375 1.765625-.332031 2.640625-.222656.871094-.496094 1.734375-.820313 2.589844l-10.636718 28.195313c-.621094 1.597656-1.292969 3.253906-2.015625 4.984374-.726563 1.730469-1.519531 3.421876-2.375 5.078126s-1.773438 3.222656-2.746094 4.699218c-.976563 1.476563-2.011719 2.773438-3.101563 3.898438-1.09375 1.121094-2.253906 2.019531-3.480468 2.683594-1.226563.660156-2.515625.996093-3.839844.996093zm0 0" data-original="#000000" class="" style="fill:#474242" data-old_color="#000000"/></g><path d="m6.828125 164.035156h443.730469v75.089844h-443.730469zm0 0" fill="#288eea" fill-rule="evenodd" data-original="#288EEA" class="" data-old_color="#288eea" style="fill:#F2C700"/><path d="m450.558594 245.953125h-443.730469c-3.773437 0-6.828125-3.054687-6.828125-6.828125v-75.089844c0-3.773437 3.054688-6.828125 6.828125-6.828125h443.730469c3.769531 0 6.828125 3.054688 6.828125 6.828125v75.089844c0 3.773438-3.058594 6.828125-6.828125 6.828125zm-436.90625-13.652344h430.082031v-61.441406h-430.082031zm0 0" fill="#0e65e5" data-original="#0E65E5" class="" data-old_color="#0e65e5" style="fill:#000000"/><path d="m65.691406 196.5625c.019532.78125.246094 1.484375.683594 2.109375.4375.621094 1.015625 1.210937 1.730469 1.769531.71875.558594 1.53125 1.101563 2.445312 1.632813.910157.53125 1.847657 1.089843 2.808594 1.675781.957031.585938 1.890625 1.222656 2.800781 1.914062.914063.683594 1.734375 1.46875 2.457032 2.339844.726562.878906 1.316406 1.867188 1.761718 2.960938.445313 1.101562.6875 2.347656.726563 3.738281v.226563c0 1.527343-.1875 2.859374-.5625 3.992187-.367188 1.136719-.863281 2.113281-1.476563 2.933594-.613281.816406-1.332031 1.492187-2.148437 2.023437-.820313.53125-1.679688.953125-2.585938 1.269532-.902343.316406-1.8125.539062-2.734375.671874-.921875.132813-1.792968.203126-2.609375.222657h-.28125c-1.582031 0-2.96875-.160157-4.160156-.472657-1.191406-.316406-2.214844-.742187-3.070313-1.269531-.859374-.53125-1.570312-1.140625-2.136718-1.828125-.566406-.691406-1.019532-1.402344-1.355469-2.136718-.335937-.734376-.574219-1.46875-.726563-2.191407-.148437-.726562-.222656-1.40625-.222656-2.039062 0-.648438.113282-1.21875.335938-1.703125s.515625-.878906.878906-1.1875c.363281-.304688.78125-.53125 1.253906-.679688.476563-.148437.972656-.226562 1.492188-.226562.488281 0 .984375.078125 1.5.226562.507812.148438.976562.375 1.390625.679688.421875.308594.761719.699218 1.03125 1.175781.273437.476563.414062 1.03125.433593 1.664063.039063 1.390624.355469 2.351562.953126 2.859374.59375.515626 1.449218.765626 2.566406.765626.558594-.015626 1.078125-.085938 1.550781-.207032.476563-.121094.878906-.335937 1.214844-.640625.332031-.308593.601562-.71875.792969-1.230469.199218-.511718.292968-1.15625.292968-1.941406 0-.964844-.214844-1.84375-.65625-2.625-.4375-.78125-1.007812-1.503906-1.714844-2.175781-.707031-.667969-1.519531-1.308594-2.429687-1.910156-.910156-.605469-1.839844-1.210938-2.792969-1.816407-.949218-.605468-1.875-1.238281-2.777344-1.898437-.902343-.660156-1.714843-1.382813-2.441406-2.164063-.726562-.78125-1.3125-1.644531-1.746094-2.59375-.4375-.949218-.664062-2.03125-.683593-3.238281v-.449219c.019531-1.988281.285156-3.648437.796875-4.96875.511718-1.320312 1.261718-2.375 2.261718-3.15625.996094-.78125 2.21875-1.335937 3.671876-1.660156 1.449218-.324218 3.117187-.488281 4.996093-.488281h.726563c1.710937 0 3.164062.1875 4.355468.558594 1.191407.371093 2.179688.847656 2.972657 1.425781.792969.574219 1.414062 1.226562 1.871093 1.953125.457032.726563.796876 1.441406 1.019532 2.148437.222656.707032.363281 1.367188.417968 1.984376.058594.613281.085938 1.105468.085938 1.476562 0 .558594-.105469 1.066406-.320312 1.523438-.21875.457031-.503907.84375-.867188 1.160156s-.792969.5625-1.285156.742187c-.492188.175781-1.03125.261719-1.605469.261719-.445313 0-.894531-.085938-1.339844-.261719-.445312-.175781-.847656-.40625-1.199219-.6875-.355468-.277343-.644531-.601562-.867187-.960937-.222656-.363282-.332031-.730469-.332031-1.101563 0-1.527343-.277344-2.589843-.824219-3.183593-.550781-.597657-1.355469-.890626-2.417969-.890626-.5 0-.988281.027344-1.464844.082032-.472656.054687-.890624.210937-1.253906.460937-.363281.25-.652344.636719-.863281 1.160157-.214844.507812-.324219 1.242187-.324219 2.195312zm0 0" fill="#fff" data-original="#FFF" class=""/><path d="m120.503906 210.410156v9.042969c0 .800781-.027344 1.585937-.070312 2.347656-.046875.761719-.207032 1.445313-.476563 2.035157-.269531.597656-.695312 1.078124-1.269531 1.441406-.578125.363281-1.40625.542968-2.484375.542968-1.042969 0-1.851563-.179687-2.417969-.542968-.566406-.363282-.976562-.84375-1.242187-1.441406-.257813-.59375-.414063-1.273438-.460938-2.035157s-.070312-1.546875-.070312-2.347656v-26.351563c0-.800781.023437-1.585937.070312-2.347656.046875-.761718.199219-1.441406.460938-2.035156.261719-.597656.675781-1.078125 1.242187-1.441406.570313-.363282 1.375-.542969 2.417969-.542969h9.214844c2.304687.113281 4.371093.597656 6.195312 1.457031.78125.367188 1.539063.835938 2.277344 1.390625.734375.558594 1.394531 1.246094 1.980469 2.054688.585937.808593 1.054687 1.765625 1.40625 2.875.355468 1.105469.535156 2.386719.535156 3.835937 0 1.996094-.316406 3.738282-.9375 5.238282-.625 1.496093-1.527344 2.753906-2.710938 3.765624-1.179687 1.015626-2.621093 1.78125-4.324218 2.289063-1.703125.515625-3.625.769531-5.765625.769531zm3.796875-6.648437c.929688-.054688 1.765625-.277344 2.507813-.667969.320312-.167969.625-.382812.925781-.640625.296875-.265625.566406-.585937.808594-.964844.242187-.382812.433593-.832031.570312-1.355469.140625-.519531.210938-1.117187.210938-1.785156 0-.632812-.070313-1.1875-.210938-1.664062-.136719-.472656-.320312-.882813-.542969-1.230469-.222656-.339844-.472656-.636719-.75-.875-.28125-.246094-.566406-.449219-.867187-.617187-.707031-.351563-1.496094-.566407-2.375-.640626h-4.074219v10.441407zm0 0" fill="#fff" data-original="#FFF" class=""/><path d="m182.457031 186.734375c.742188 0 1.5.027344 2.261719.082031.761719.058594 1.453125.214844 2.0625.476563.617188.261719 1.117188.652343 1.511719 1.183593.390625.53125.585937 1.273438.585937 2.21875 0 .953126-.195312 1.691407-.585937 2.222657s-.890625.925781-1.511719 1.183593c-.609375.261719-1.300781.421876-2.0625.476563s-1.519531.085937-2.261719.085937h-6.644531v7.589844h3.515625c.746094 0 1.496094.027344 2.246094.070313.757812.046875 1.429687.195312 2.011719.449219.585937.25 1.066406.632812 1.441406 1.144531.371094.511719.554687 1.222656.554687 2.136719 0 .929687-.183593 1.644531-.554687 2.148437-.375.503906-.855469.882813-1.441406 1.128906-.582032.253907-1.253907.402344-2.011719.449219-.75.046875-1.503907.070312-2.246094.070312h-3.515625v8.039063h6.644531c.742188 0 1.5.03125 2.261719.082031.761719.058594 1.453125.210938 2.0625.464844.617188.25 1.117188.640625 1.511719 1.171875.390625.53125.585937 1.261719.585937 2.191406 0 .964844-.199218 1.71875-.597656 2.257813-.40625.539062-.910156.941406-1.527344 1.203125-.609375.261719-1.300781.417969-2.066406.472656-.761719.058594-1.503906.085937-2.234375.085937h-10.941406c-1.042969 0-1.847657-.1875-2.417969-.558593-.566406-.371094-.980469-.863281-1.238281-1.464844-.265625-.605469-.417969-1.289063-.460938-2.050781-.046875-.765625-.070312-1.542969-.070312-2.34375v-26.25c0-.796875.023437-1.578125.070312-2.339844.042969-.765625.195313-1.449219.460938-2.054688.257812-.605468.671875-1.09375 1.238281-1.460937.570312-.375 1.375-.5625 2.417969-.5625zm0 0" fill="#fff" data-original="#FFF" class=""/><path d="m231.628906 186.511719c2.042969 0 3.808594.230469 5.289063.695312 1.480469.464844 2.726562 1.074219 3.738281 1.816407 1.019531.742187 1.832031 1.585937 2.445312 2.523437.617188.941406 1.085938 1.894531 1.410157 2.863281s.539062 1.898438.640625 2.792969c.105468.894531.15625 1.667969.15625 2.316406 0 .277344-.023438.617188-.070313 1.019531-.046875.402344-.210937.785157-.492187 1.15625-.273438.375-.71875.691407-1.320313.953126-.605469.257812-1.464843.390624-2.585937.390624-.371094 0-.835938-.027343-1.394532-.070312-.554687-.042969-1.097656-.167969-1.621093-.363281-.519531-.195313-.964844-.472657-1.339844-.835938-.367187-.367187-.554687-.871093-.554687-1.523437 0-1.007813-.058594-1.90625-.183594-2.710938-.117188-.796875-.339844-1.476562-.65625-2.035156s-.753906-.984375-1.3125-1.28125c-.558594-.300781-1.273438-.449219-2.148438-.449219-.914062 0-1.617187.191407-2.105468.570313-.492188.382812-.855469.796875-1.078126 1.246094-.257812.539062-.410156 1.144531-.445312 1.8125v17.703124c.035156.816407.183594 1.53125.445312 2.148438.222657.539062.585938 1.03125 1.078126 1.480469.488281.445312 1.191406.671875 2.105468.671875.875 0 1.589844-.183594 2.148438-.546875s.996094-.851563 1.3125-1.464844.535156-1.320313.65625-2.121094c.125-.800781.183594-1.636719.183594-2.515625 0-.277344.046874-.566406.140624-.863281.09375-.300781.304688-.574219.640626-.824219.335937-.25.828124-.460937 1.476562-.628906.65625-.164062 1.539062-.246094 2.65625-.246094s1.976562.121094 2.582031.375c.605469.25 1.046875.539063 1.324219.863282.28125.328124.445312.644531.488281.953124.046875.304688.070313.503907.070313.597657 0 2.046875-.34375 3.878906-1.03125 5.488281-.691406 1.613281-1.660156 2.972656-2.917969 4.089844-1.253906 1.117187-2.753906 1.96875-4.496094 2.554687-1.742187.585938-3.652343.878907-5.734375.878907-.335937 0-.882812-.027344-1.636718-.082032-.75-.058594-1.597657-.203125-2.523438-.449218-.929688-.238282-1.890625-.605469-2.878906-1.089844-.984375-.484375-1.882813-1.15625-2.691406-2.023438-.8125-.863281-1.472657-1.945312-1.996094-3.238281-.523438-1.292969-.78125-2.871094-.78125-4.730469v-15.582031c0-1.523437.183594-2.871094.554687-4.046875.375-1.171875.863281-2.191406 1.46875-3.054688.601563-.867187 1.300781-1.59375 2.078125-2.179687.785156-.582031 1.585938-1.074219 2.398438-1.460937 1.898437-.902344 4.066406-1.414063 6.507812-1.542969zm0 0" fill="#fff" data-original="#FFF" class=""/><path d="m276.941406 193.152344c0-.800782.042969-1.582032.125-2.34375.085938-.761719.28125-1.445313.585938-2.050782.308594-.605468.769531-1.09375 1.382812-1.464843.617188-.375 1.460938-.558594 2.539063-.558594 1.082031 0 1.925781.183594 2.542969.558594.613281.371093 1.074218.859375 1.378906 1.464843.308594.605469.503906 1.289063.589844 2.050782.082031.761718.125 1.542968.125 2.34375v26.246094c0 .820312-.035157 1.609374-.113282 2.375-.074218.761718-.261718 1.445312-.570312 2.050781-.304688.605469-.773438 1.089843-1.394532 1.453125-.625.363281-1.476562.542968-2.558593.542968-1.074219 0-1.921875-.179687-2.539063-.542968-.609375-.363282-1.070312-.847656-1.378906-1.453125s-.503906-1.289063-.585938-2.050781c-.085937-.761719-.128906-1.554688-.128906-2.375zm0 0" fill="#fff" data-original="#FFF" class=""/><path d="m344.535156 211.695312c.039063 1.265626.085938 2.558594.140625 3.878907.058594 1.320312.085938 2.59375.085938 3.824219v.835937c0 .707031-.023438 1.390625-.070313 2.050781-.046875.664063-.191406 1.257813-.433594 1.789063-.242187.53125-.625.957031-1.144531 1.269531-.523437.320312-1.257812.472656-2.207031.472656-.964844 0-1.714844-.15625-2.234375-.472656-.519531-.3125-.90625-.734375-1.160156-1.253906-.25-.523438-.398438-1.117188-.445313-1.789063-.050781-.667969-.066406-1.359375-.066406-2.066406v-3.910156h-11.171875v3.910156c0 .707031-.023437 1.398437-.070313 2.066406-.046874.671875-.191406 1.265625-.445312 1.789063-.25.519531-.636719.941406-1.160156 1.253906-.523438.320312-1.265625.472656-2.230469.472656-.972656 0-1.714844-.15625-2.234375-.472656-.527344-.316406-.90625-.738281-1.148438-1.269531-.242187-.53125-.378906-1.125-.417968-1.789063-.039063-.660156-.054688-1.34375-.054688-2.050781v-.835937c0-.574219.003906-1.191407.011719-1.84375.011719-.652344.027344-1.3125.042969-1.980469.019531-.671875.039062-1.335938.054687-2 .019531-.660157.035157-1.285157.054688-1.882813.929687-3.238281 1.90625-6.519531 2.933593-9.84375 1.027344-3.320312 2-6.609375 2.933594-9.867187.183594-.6875.40625-1.355469.667969-1.996094.261719-.644531.605469-1.199219 1.035156-1.675781.425781-.472656.976563-.855469 1.644531-1.144532.671876-.289062 1.527344-.433593 2.570313-.433593h2.792969c1.023437 0 1.875.144531 2.554687.433593.675781.289063 1.230469.671876 1.660157 1.144532.425781.476562.765624 1.03125 1.019531 1.675781.25.640625.476562 1.308594.683593 1.996094zm-17.53125-2.738281h8.878906l-4.132812-14.964843h-.613281zm0 0" fill="#fff" data-original="#FFF" class=""/><path d="m376.953125 193.152344c0-.800782.035156-1.582032.109375-2.34375.078125-.761719.257812-1.445313.546875-2.050782.285156-.605468.710937-1.09375 1.269531-1.464843.554688-.375 1.328125-.558594 2.316406-.558594 1.058594 0 1.886719.183594 2.480469.558594.597657.371093 1.035157.859375 1.316407 1.464843.277343.605469.449218 1.289063.515624 2.050782.066407.761718.097657 1.542968.097657 2.34375v24.460937h5.472656c.765625 0 1.519531.035157 2.261719.109375.746094.074219 1.410156.25 1.996094.53125.585937.28125 1.054687.6875 1.410156 1.230469.351562.539063.53125 1.273437.53125 2.203125 0 .949219-.179688 1.699219-.53125 2.25-.355469.542969-.824219.960938-1.410156 1.238281-.585938.28125-1.25.457031-1.996094.53125-.746094.078125-1.496094.113281-2.261719.113281h-7.929687c-.984376 0-1.859376-.035156-2.621094-.113281-.761719-.074219-1.410156-.25-1.941406-.53125-.53125-.277343-.9375-.691406-1.214844-1.238281-.277344-.550781-.417969-1.300781-.417969-2.25zm0 0" fill="#fff" data-original="#FFF" class=""/><path d="m129.707031 314.21875c-3.769531 0-6.828125-3.054688-6.828125-6.824219v-27.308593c0-3.769532 3.058594-6.824219 6.828125-6.824219s6.828125 3.054687 6.828125 6.824219v27.308593c0 3.769531-3.058594 6.824219-6.828125 6.824219zm0 0" fill="#fff" data-original="#FFF" class=""/><path d="m143.359375 300.566406h-27.304687c-3.769532 0-6.828126-3.054687-6.828126-6.828125 0-3.769531 3.058594-6.824219 6.828126-6.824219h27.304687c3.769531 0 6.828125 3.054688 6.828125 6.824219 0 3.773438-3.058594 6.828125-6.828125 6.828125zm0 0" fill="#fff" data-original="#FFF" class=""/><path d="m143.359375 34.328125h-68.265625c-3.769531 0-6.828125-3.058594-6.828125-6.828125s3.058594-6.828125 6.828125-6.828125h68.265625c3.769531 0 6.828125 3.058594 6.828125 6.828125s-3.058594 6.828125-6.828125 6.828125zm0 0" fill="#fff" data-original="#FFF" class=""/></g> </svg>
