<svg height="512" viewBox="0 0 64 64" width="512" xmlns="http://www.w3.org/2000/svg"><g fill="#78b9eb"><path d="m30 38h4v19h-4z"/><path d="m36 57v4h-8v-4h2 4z"/><path d="m19 35h26v2a1 1 0 0 1 -1 1h-24a1 1 0 0 1 -1-1z"/><path d="m43 26v1a3 3 0 0 1 -6 0v-3h6z"/><path d="m27 24v3a3 3 0 0 1 -6 0v-3z"/><path d="m7 41h9a1 1 0 0 1 1 1v3h-14v-26h4z"/><path d="m3 48h3v13h-3z"/><path d="m13 48h3v13h-3z"/><path d="m58 48h3v13h-3z"/><path d="m48 48h3v13h-3z"/><path d="m57 41v-22h4v26h-14v-3a1 1 0 0 1 1-1z"/></g><path d="m61 18h-4a1 1 0 0 0 -1 1v21h-8a2 2 0 0 0 -2 2v2a1 1 0 0 0 -1 1v3a1 1 0 0 0 1 1h1v12a1 1 0 0 0 1 1h3a1 1 0 0 0 1-1v-12h5v12a1 1 0 0 0 1 1h3a1 1 0 0 0 1-1v-42a1 1 0 0 0 -1-1zm-14 29v-1h13v1zm1-5h8v1h2v-23h2v24h-12zm2 18h-1v-11h1zm10 0h-1v-11h1z" fill="#006df0"/><path d="m44 39a2 2 0 0 0 2-2v-1h1a1 1 0 0 0 1-1v-2a3 3 0 0 0 -3-3h-2.382a3.975 3.975 0 0 0 1.382-3h2v-2h-2v-1a1 1 0 0 0 -1-1h-6a1 1 0 0 0 -1 1v3a3.975 3.975 0 0 0 1.382 3h-10.764a3.975 3.975 0 0 0 1.382-3v-3a1 1 0 0 0 -1-1h-6a1 1 0 0 0 -1 1v1h-2v2h2a3.975 3.975 0 0 0 1.382 3h-2.382a3 3 0 0 0 -3 3v2a1 1 0 0 0 1 1h1v1a2 2 0 0 0 2 2h9v17h-1a1 1 0 0 0 -1 1v3h-4v2h18v-2h-4v-3a1 1 0 0 0 -1-1h-1v-17zm-6-14h4v2a2 2 0 0 1 -4 0zm-16 0h4v2a2 2 0 0 1 -4 0zm-4 8a1 1 0 0 1 1-1h26a1 1 0 0 1 1 1v1h-28zm2 3h24v1h-24zm9 24v-2h6v2zm4-4h-2v-17h2z" fill="#006df0"/><path d="m18 44v-2a2 2 0 0 0 -2-2h-8v-21a1 1 0 0 0 -1-1h-4a1 1 0 0 0 -1 1v42a1 1 0 0 0 1 1h3a1 1 0 0 0 1-1v-12h5v12a1 1 0 0 0 1 1h3a1 1 0 0 0 1-1v-12h1a1 1 0 0 0 1-1v-3a1 1 0 0 0 -1-1zm-14-24h2v23h2v-1h8v2h-12zm1 40h-1v-11h1zm10 0h-1v-11h1zm2-13h-13v-1h13z" fill="#006df0"/></svg>