<svg height="512" viewBox="0 0 64 64" width="512" xmlns="http://www.w3.org/2000/svg" xmlns:xlink="http://www.w3.org/1999/xlink"><linearGradient id="gradient_ice" gradientUnits="userSpaceOnUse" x1="12.689" x2="72.025" y1="81.97" y2="28.196"><stop offset="0" stop-color="#fff200"/><stop offset="1" stop-color="#cd118c"/></linearGradient><linearGradient id="gradient_ice-2" x1="1.127" x2="60.464" xlink:href="#gradient_ice" y1="69.213" y2="15.439"/><linearGradient id="gradient_ice-3" x1="-9.633" x2="49.703" xlink:href="#gradient_ice" y1="57.339" y2="3.566"/><path d="m61 18h-4a1 1 0 0 0 -1 1v21h-8a2 2 0 0 0 -2 2v2a1 1 0 0 0 -1 1v3a1 1 0 0 0 1 1h1v12a1 1 0 0 0 1 1h3a1 1 0 0 0 1-1v-12h5v12a1 1 0 0 0 1 1h3a1 1 0 0 0 1-1v-42a1 1 0 0 0 -1-1zm-14 29v-1h13v1zm1-5h8v1h2v-23h2v24h-12zm2 18h-1v-11h1zm10 0h-1v-11h1z" fill="url(#gradient_ice)"/><path d="m44 39a2 2 0 0 0 2-2v-1h1a1 1 0 0 0 1-1v-2a3 3 0 0 0 -3-3h-2.382a3.975 3.975 0 0 0 1.382-3h2v-2h-2v-1a1 1 0 0 0 -1-1h-6a1 1 0 0 0 -1 1v3a3.975 3.975 0 0 0 1.382 3h-10.764a3.975 3.975 0 0 0 1.382-3v-3a1 1 0 0 0 -1-1h-6a1 1 0 0 0 -1 1v1h-2v2h2a3.975 3.975 0 0 0 1.382 3h-2.382a3 3 0 0 0 -3 3v2a1 1 0 0 0 1 1h1v1a2 2 0 0 0 2 2h9v17h-1a1 1 0 0 0 -1 1v3h-4v2h18v-2h-4v-3a1 1 0 0 0 -1-1h-1v-17zm-6-14h4v2a2 2 0 0 1 -4 0zm-16 0h4v2a2 2 0 0 1 -4 0zm-4 8a1 1 0 0 1 1-1h26a1 1 0 0 1 1 1v1h-28zm2 3h24v1h-24zm9 24v-2h6v2zm4-4h-2v-17h2z" fill="url(#gradient_ice-2)"/><path d="m18 44v-2a2 2 0 0 0 -2-2h-8v-21a1 1 0 0 0 -1-1h-4a1 1 0 0 0 -1 1v42a1 1 0 0 0 1 1h3a1 1 0 0 0 1-1v-12h5v12a1 1 0 0 0 1 1h3a1 1 0 0 0 1-1v-12h1a1 1 0 0 0 1-1v-3a1 1 0 0 0 -1-1zm-14-24h2v23h2v-1h8v2h-12zm1 40h-1v-11h1zm10 0h-1v-11h1zm2-13h-13v-1h13z" fill="url(#gradient_ice-3)"/></svg>